<svg xmlns="http://www.w3.org/2000/svg" width="256" height="256" viewBox="0 0 100 100"><rect width="100" height="100" rx="0" fill="#d7dd76"></rect><path fill="#b4ba50" d="M-10.20 85.16L-10.20 85.16Q-10.64 85.25-11.00 84.49Q-11.36 83.72-11.81 83.01L-11.81 83.01L-10.82 83.01Q-11.45 81.03-11.14 79.37Q-10.82 77.71-10.38 76.13Q-9.93 74.56-9.61 73.08Q-9.30 71.60-9.93 69.98L-9.93 69.98Q-9.48 70.25-9.25 69.75Q-9.03 69.26-8.89 68.50Q-8.76 67.73-8.80 66.88Q-8.85 66.03-8.94 65.49L-8.94 65.49Q-7.77 62.70-7.10 59.74Q-6.42 56.77-5.88 53.85Q-5.34 50.93-4.67 48.19Q-4.00 45.45-2.92 43.03L-2.92 43.03Q-1.66 42.85-0.27 43.34Q1.13 43.83 1.57 44.55L1.57 44.55Q4.36 42.40 6.52 39.34Q8.67 36.29 10.87 33.37Q13.07 30.45 15.86 28.20Q18.64 25.96 22.78 25.51L22.78 25.51Q24.93 27.03 27.63 28.79Q30.32 30.54 32.03 33.14L32.03 33.14Q32.75 33.59 33.42 34.09Q34.10 34.58 34.82 35.03L34.82 35.03L34.82 36.38Q36.07 37.54 36.93 39.12Q37.78 40.69 38.46 42.44Q39.13 44.19 39.76 45.99Q40.39 47.79 41.20 49.31L41.20 49.31Q41.02 49.85 41.06 50.26Q41.11 50.66 41.24 51.07Q41.38 51.47 41.46 51.96Q41.55 52.46 41.55 53.18L41.55 53.18Q41.20 57.94 38.46 60.86Q35.71 63.78 31.81 65.62Q27.90 67.46 23.50 68.77Q19.09 70.07 15.50 71.60L15.50 71.60Q15.50 71.96 15.90 71.96Q16.31 71.96 16.13 72.49L16.13 72.49Q18.82 74.11 20.31 75.10Q21.79 76.09 23.09 76.76Q24.39 77.44 25.97 77.88Q27.54 78.33 30.32 78.96L30.32 78.96Q33.11 79.59 34.68 80.00Q36.25 80.40 37.51 80.63Q38.77 80.85 40.21 81.03Q41.64 81.21 44.07 81.48L44.07 81.48Q45.06 82.47 45.69 83.81Q46.32 85.16 46.59 86.51Q46.86 87.86 46.72 89.07Q46.59 90.28 45.96 91.00L45.96 91.00Q46.05 91.36 46.45 91.32Q46.86 91.27 47.30 91.36L47.30 91.36Q46.68 91.81 46.23 92.44Q45.78 93.07 45.33 93.70Q44.88 94.33 44.29 94.87Q43.71 95.40 42.81 95.49L42.81 95.49Q39.58 96.75 34.55 95.58Q29.52 94.42 21.70 91.45L21.70 91.45Q17.84 90.01 15.41 88.85Q12.98 87.68 11.19 86.55Q9.39 85.43 7.86 84.13Q6.34 82.83 4.36 81.03L4.36 81.03Q4.09 81.12 4.04 81.39Q4 81.66 3.73 81.75L3.73 81.75Q3.28 85.34 2.34 87.59Q1.39 89.83-0.40 92.17L-0.40 92.17Q-1.84 91.90-2.33 92.44Q-2.83 92.98-3.55 93.43L-3.55 93.43Q-4.45 93.61-4.89 93.38Q-5.34 93.16-5.70 92.89Q-6.06 92.62-6.51 92.35Q-6.96 92.08-7.95 92.17L-7.95 92.17Q-8.22 91.36-8.49 90.60Q-8.76 89.83-9.93 89.92L-9.93 89.92Q-9.66 89.12-9.75 88.53Q-9.84 87.95-10.02 87.45Q-10.20 86.96-10.33 86.42Q-10.46 85.88-10.20 85.16ZM19.81 44.10L19.81 44.10Q18.64 45.81 17.21 47.20Q15.77 48.60 14.38 50.08Q12.98 51.56 11.91 53.31Q10.83 55.06 10.38 57.49L10.38 57.49Q14.15 57.04 18.29 55.38Q22.42 53.72 26.10 52.19L26.10 52.19Q25.65 48.87 23.77 46.84Q21.88 44.82 19.81 44.10ZM73.18 60.90L73.09 60.99Q71.83 62.79 70.66 64.77L70.66 64.77L73.09 64.59Q76.23 64.41 78.93 64.14Q81.63 63.87 84.77 63.24L84.77 63.24Q84.05 59.92 83.20 56.46Q82.34 53.00 81.36 49.49L81.36 49.49L80.91 50.39Q78.66 52.82 76.59 55.60Q74.53 58.39 73.18 60.90L73.18 60.90ZM98.34 30.09L98.16 29.91Q97.71 30.45 97.17 30.54Q96.63 30.63 95.91 30.81L95.91 30.81Q95.55 30.99 95.10 31.21Q94.65 31.44 94.20 31.62L94.20 31.62Q94.38 32.69 94.52 33.50Q94.65 34.31 94.83 35.12L94.83 35.12Q95.19 37.01 95.46 38.85Q95.73 40.69 95.82 42.94L95.82 42.94Q96.27 44.73 96.67 46.57Q97.08 48.42 97.44 50.21L97.44 50.21Q97.89 52.82 98.43 55.20Q98.96 57.58 99.86 59.74L99.86 59.74Q100.76 59.74 100.94 59.83L100.94 59.83Q102.02 59.38 103.46 59.29L103.46 59.29L104.63 59.20L104.98 60.28Q105.16 60.54 105.43 60.81Q105.70 61.08 106.06 61.35L106.06 61.35Q107.50 61.44 108.17 61.94Q108.85 62.43 109.30 62.88L109.30 62.88Q109.48 63.06 109.75 63.29Q110.02 63.51 110.20 63.60L110.20 63.60L111.81 64.23L110.91 65.94Q109.93 67.82 107.90 69.62Q105.88 71.42 103.37 72.58L103.37 72.58Q103.55 73.21 103.59 73.75Q103.64 74.29 103.82 75.01L103.82 75.01Q104.18 76.81 104.40 78.74Q104.63 80.67 104.36 82.74L104.36 82.74Q103.46 85.07 102.24 86.91Q101.03 88.76 99.37 90.24Q97.71 91.72 95.64 92.66Q93.57 93.61 91.33 93.70L91.33 93.70Q90.07 93.43 89.49 93.07Q88.90 92.71 88.45 92.35L88.45 92.35Q87.73 91.81 87.29 91.63L87.29 91.63L86.12 91.09L86.48 89.74Q86.75 89.03 86.43 88.49Q86.12 87.95 85.13 87.05L85.13 87.05Q84.77 86.78 84.50 86.46Q84.23 86.15 83.87 85.79L83.87 85.79L82.07 83.72L85.04 82.92Q87.73 82.20 88.63 81.07Q89.53 79.95 89.35 77.08L89.35 77.08Q87.11 76.63 85.67 76.94Q84.23 77.26 82.79 77.62L82.79 77.62Q80.73 78.15 78.75 78.56Q76.77 78.96 74.44 78.96L74.44 78.96Q72.91 78.96 71.20 78.69L71.20 78.69L70.21 78.60L69.95 77.62Q69.95 77.44 69.72 77.21Q69.50 76.99 69.32 76.81L69.32 76.81Q68.87 76.27 68.24 75.37Q67.61 74.47 67.97 73.12L67.97 73.12Q67.34 72.13 67.25 71.06L67.25 71.06Q66.89 71.78 66.67 72.45Q66.44 73.12 66.26 73.75L66.26 73.75L65.90 74.92L64.73 75.10Q64.55 75.28 64.42 75.64Q64.29 76.00 64.38 76.18L64.38 76.18L64.73 77.17L63.84 77.97Q63.66 78.24 63.39 78.42Q63.12 78.60 62.94 78.78L62.94 78.78Q62.76 79.77 62.44 80.67Q62.13 81.57 61.77 82.47L61.77 82.47Q61.32 83.90 60.92 85.25Q60.51 86.60 60.51 87.95L60.51 87.95L60.15 89.12Q59.70 89.83 59.03 90.19Q58.36 90.55 57.73 90.82L57.73 90.82Q56.83 91.18 56.47 91.54L56.47 91.54L56.20 92.71L54.85 92.89Q53.68 93.16 53.19 93.25Q52.70 93.34 52.07 93.34L52.07 93.34L50.90 93.25Q49.82 92.17 49.15 91.59Q48.47 91.00 47.57 90.55L47.57 90.55L47.04 89.83Q46.68 89.12 46.59 88.53Q46.50 87.95 46.32 87.32L46.32 87.32Q46.14 86.15 45.78 85.70L45.78 85.70L44.43 84.35L45.60 83.46L45.69 81.57Q47.93 76.09 50.31 71.06Q52.70 66.03 55.30 60.72L55.30 60.72Q56.11 59.02 56.96 57.31Q57.82 55.60 58.63 53.81L58.63 53.81Q58.54 53.45 58.54 53.04Q58.54 52.64 58.71 52.10L58.71 52.10Q59.97 50.30 60.74 48.87Q61.50 47.43 62.22 45.90L62.22 45.90Q63.03 44.10 63.97 42.31Q64.91 40.51 66.35 38.80L66.35 38.80L66.98 37.90L67.97 37.99Q68.33 37.81 68.73 37.68Q69.14 37.54 69.77 37.54L69.77 37.54L71.38 37.81Q75.61 35.48 78.93 31.08L78.93 31.08Q77.22 29.55 76.41 27.30L76.41 27.30Q76.05 24.79 76.59 22.68Q77.13 20.56 78.12 18.77Q79.11 16.97 80.41 15.44Q81.71 13.92 82.97 12.48L82.97 12.48Q83.51 12.66 83.74 12.16Q83.96 11.67 84.41 11.49L84.41 11.49Q84.68 10.77 85.31 10.46Q85.94 10.14 86.30 9.51L86.30 9.51Q87.02 9.33 87.46 8.79Q87.91 8.26 88.63 8.08L88.63 8.08Q89.44 7.27 89.85 6.82Q90.25 6.37 90.79 5.65L90.79 5.65Q91.24 5.56 91.46 5.61Q91.69 5.65 92.14 5.47L92.14 5.47Q92.59 4.84 92.86 4.57Q93.13 4.30 93.66 3.85L93.66 3.85Q94.29 4.12 94.92 4.21Q95.55 4.30 96.09 4.84L96.09 4.84Q96.09 5.29 96.31 5.56Q96.54 5.83 96.81 6.01Q97.08 6.19 97.35 6.46Q97.62 6.73 97.71 7.09L97.71 7.09Q98.34 7.63 98.52 7.81Q98.70 7.99 98.88 8.62L98.88 8.62Q98.70 9.06 98.56 9.56Q98.43 10.05 97.98 10.23L97.98 10.23Q98.43 11.31 98.34 11.40L98.34 11.40Q99.32 13.20 100.22 15.13Q101.12 17.06 102.20 18.86L102.20 18.86Q102.02 19.94 102.56 20.88Q103.10 21.82 103.28 22.81L103.28 22.81Q103.46 24.43 103.05 25.42Q102.65 26.40 101.93 27.17Q101.21 27.93 100.22 28.61Q99.23 29.28 98.34 30.09L98.34 30.09ZM92.41 21.37L92.41 21.37Q92.59 20.47 92.59 20.21L92.59 20.21Q92.23 19.67 91.96 19.04Q91.69 18.41 91.33 17.87L91.33 17.87Q90.88 18.32 90.65 18.27Q90.43 18.23 90.25 18.05L90.25 18.05Q89.80 18.50 89.31 18.90Q88.81 19.31 88.36 19.76L88.36 19.76Q87.82 20.47 87.38 20.97Q86.93 21.46 86.93 22.27L86.93 22.27Q87.55 22.72 88.45 22.59Q89.35 22.45 90.07 22.45L90.07 22.45Q90.79 22.18 91.33 21.91Q91.87 21.64 92.41 21.37Z"></path></svg>